Coordinates
version=1
nRows=38
nColumns=12
inDegrees=yes

Units are S.I. units (second, meters, Newtons, ...)
Angles are in degrees

endheader
time	SC_y	SC_z	SC_x	AC_y	AC_z	AC_x	GH_y	GH_z	GH_yy	EL_x	PS_y
       0.0              -21.55            7.8           29.3          51.16          5.189         -11.95          55.76          63.15          87.83          117.6          119.0
   0.04079              -21.55          7.803           29.3          51.15          5.188         -11.95          55.73          63.14          87.81          117.6          119.0
   0.08158              -21.55          7.806           29.3          51.15          5.187         -11.95          55.71          63.13          87.79          117.6          119.0
    0.1224              -21.55          7.809           29.3          51.15          5.187         -11.94          55.69          63.12          87.76          117.6          119.0
    0.1632              -21.55          7.812           29.3          51.14          5.186         -11.94          55.66          63.11          87.74          117.6          118.9
    0.2039              -21.55          7.816          29.29          51.14          5.185         -11.94          55.63          63.09          87.71          117.6          118.9
    0.2447              -21.54           7.82          29.29          51.14          5.184         -11.94           55.6          63.08          87.68          117.6          118.9
    0.2855              -21.54          7.824          29.29          51.13          5.182         -11.93          55.57          63.07          87.65          117.6          118.9
    0.3263              -21.54          7.828          29.29          51.13          5.181         -11.93          55.53          63.05          87.62          117.6          118.9
    0.3671              -21.54          7.833          29.28          51.12           5.18         -11.93           55.5          63.03          87.58          117.6          118.9
    0.4079              -21.54          7.838          29.28          51.12          5.178         -11.93          55.46          63.02          87.54          117.6          118.9
    0.4487              -21.53          7.844          29.28          51.11          5.177         -11.92          55.41           63.0           87.5          117.5          118.8
    0.4895              -21.53           7.85          29.28          51.11          5.175         -11.92          55.37          62.98          87.45          117.5          118.8
    0.5303              -21.53          7.856          29.27           51.1          5.173         -11.92          55.32          62.96           87.4          117.5          118.8
     0.571              -21.52          7.863          29.27          51.09          5.171         -11.91          55.27          62.93          87.35          117.5          118.8
    0.6118              -21.52          7.871          29.26          51.08          5.169         -11.91          55.21          62.91          87.29          117.5          118.7
    0.6526              -21.52          7.879          29.26          51.08          5.167          -11.9          55.14          62.88          87.23          117.5          118.7
    0.6934              -21.51          7.888          29.25          51.07          5.164          -11.9          55.07          62.85          87.16          117.5          118.7
    0.7342              -21.51          7.897          29.25          51.06          5.162         -11.89           55.0          62.82          87.09          117.5          118.7
     0.775               -21.5          7.908          29.24          51.05          5.159         -11.89          54.92          62.78          87.01          117.5          118.6
    0.8158               -21.5           7.92          29.24          51.03          5.155         -11.88          54.82          62.74          86.92          117.4          118.6
    0.8566              -21.49          7.933          29.23          51.02          5.152         -11.87          54.72           62.7          86.82          117.4          118.5
    0.8974              -21.48          7.947          29.22          51.01          5.148         -11.86          54.61          62.65          86.72          117.4          118.5
    0.9381              -21.48          7.962          29.21          50.99          5.143         -11.85          54.49          62.59           86.6          117.4          118.4
    0.9789              -21.47           7.98           29.2          50.97          5.138         -11.84          54.36          62.53          86.46          117.4          118.4
      1.02              -21.46          7.999          29.19          50.95          5.133         -11.83           54.2          62.47          86.32          117.3          118.3
     1.061              -21.45          8.021          29.18          50.93          5.127         -11.82          54.03          62.39          86.15          117.3          118.2
     1.101              -21.44          8.046          29.17          50.91           5.12          -11.8          53.84          62.31          85.96          117.3          118.2
     1.142              -21.42          8.074          29.15          50.88          5.112         -11.79          53.63          62.22          85.75          117.2          118.1
     1.183              -21.41          8.105          29.13          50.85          5.103         -11.77          53.38          62.11          85.51          117.2          118.0
     1.224              -21.39          8.141          29.11          50.81          5.093         -11.75           53.1          61.99          85.24          117.1          117.8
     1.264              -21.37          8.182          29.09          50.77          5.081         -11.72          52.78          61.84          84.92          117.1          117.7
     1.305              -21.35           8.23          29.06          50.72          5.068         -11.69          52.41          61.68          84.56          117.0          117.5
     1.346              -21.32          8.286          29.03          50.67          5.052         -11.66          51.98          61.49          84.14          117.0          117.4
     1.387              -21.29           8.35           29.0           50.6          5.034         -11.62          51.47          61.27          83.65          116.9          117.1
     1.428              -21.26          8.427          28.95          50.53          5.012         -11.58          50.88          61.01          83.06          116.8          116.9
     1.468              -21.22          8.518           28.9          50.43          4.987         -11.53          50.17           60.7          82.37          116.6          116.6
     1.509              -21.16          8.627          28.84          50.33          4.956         -11.46          49.32          60.33          81.55          116.5          116.2
